HIERARCHY
ROOT Hips
{
	OFFSET -0.001795 -0.223333 0.028219
	CHANNELS 6 Xposition Yposition Zposition Zrotation Yrotation Xrotation 
	JOINT LeftUpLeg
	{
		OFFSET 0.069520 -0.091406 -0.006815
		CHANNELS 3 Zrotation Yrotation Xrotation
		JOINT LeftLeg
		{
			OFFSET 0.034277 -0.375199 -0.004496
			CHANNELS 3 Zrotation Yrotation Xrotation
			JOINT LeftFoot
			{
				OFFSET -0.013596 -0.397961 -0.043693
				CHANNELS 3 Zrotation Yrotation Xrotation
				JOINT LeftToe
				{
					OFFSET 0.026358 -0.055791 0.119288
					CHANNELS 3 Zrotation Yrotation Xrotation
					End Site
					{
						OFFSET 0.000000 0.000000 0.000000
					}
				}
			}
		}
	}
	JOINT RightUpLeg
	{
		OFFSET -0.067670 -0.090522 -0.004320
		CHANNELS 3 Zrotation Yrotation Xrotation
		JOINT RightLeg
		{
			OFFSET -0.038290 -0.382569 -0.008850
			CHANNELS 3 Zrotation Yrotation Xrotation
			JOINT RightFoot
			{
				OFFSET 0.015774 -0.398415 -0.042312
				CHANNELS 3 Zrotation Yrotation Xrotation
				JOINT RightToe
				{
					OFFSET -0.025372 -0.048144 0.123348
					CHANNELS 3 Zrotation Yrotation Xrotation
					End Site
					{
						OFFSET 0.000000 0.000000 0.000000
					}
				}
			}
		}
	}
	JOINT Spine
	{
		OFFSET -0.002533 0.108963 -0.026696
		CHANNELS 3 Zrotation Yrotation Xrotation
		JOINT Spine1
		{
			OFFSET 0.005487 0.135180 0.001092
			CHANNELS 3 Zrotation Yrotation Xrotation
			JOINT Spine2
			{
				OFFSET 0.001457 0.052922 0.025425
				CHANNELS 3 Zrotation Yrotation Xrotation
				JOINT Neck
				{
					OFFSET -0.002778 0.213870 -0.042857
					CHANNELS 3 Zrotation Yrotation Xrotation
					JOINT Head
					{
						OFFSET 0.005152 0.064970 0.051349
						CHANNELS 3 Zrotation Yrotation Xrotation
						End Site
						{
							OFFSET 0.000000 0.000000 0.000000
						}
					}
				}
				JOINT LeftShoulder
				{
					OFFSET 0.078845 0.121749 -0.034090
					CHANNELS 3 Zrotation Yrotation Xrotation
					JOINT LeftArm
					{
						OFFSET 0.090977 0.030469 -0.008868
						CHANNELS 3 Zrotation Yrotation Xrotation
						JOINT LeftForeArm
						{
							OFFSET 0.259612 -0.012772 -0.027456
							CHANNELS 3 Zrotation Yrotation Xrotation
							JOINT LeftHand
							{
								OFFSET 0.249234 0.008986 -0.001171
								CHANNELS 3 Zrotation Yrotation Xrotation
								End Site
								{
									OFFSET 0.000000 0.000000 0.000000
								}
							}
						}
					}
				}
				JOINT RightShoulder
				{
					OFFSET -0.081759 0.118833 -0.038615
					CHANNELS 3 Zrotation Yrotation Xrotation
					JOINT RightArm
					{
						OFFSET -0.096012 0.032551 -0.009143
						CHANNELS 3 Zrotation Yrotation Xrotation
						JOINT RightForeArm
						{
							OFFSET -0.253742 -0.013329 -0.021401
							CHANNELS 3 Zrotation Yrotation Xrotation
							JOINT RightHand
							{
								OFFSET -0.255298 0.007772 -0.005559
								CHANNELS 3 Zrotation Yrotation Xrotation
								End Site
								{
									OFFSET 0.000000 0.000000 0.000000
								}
							}
						}
					}
				}
			}
		}
	}
}
MOTION
Frames: 16
Frame Time: 0.050000
0.157010 0.927635 1.114069 -1.632415 0.581838 0.696210 -5.305842 -0.867315 -6.849438 -1.931681 0.098362 6.161282 8.203659 16.960757 1.478153 0.000000 0.000000 0.000000 -7.989797 0.634080 -15.139474 3.332351 -0.186313 19.744426 -7.405227 -18.498006 7.201250 0.000000 0.000000 0.000000 -1.687553 -0.289914 11.361942 -2.798825 1.337550 7.626185 2.464015 2.014119 8.929691 -4.340854 4.031720 -18.413485 0.000000 0.000000 0.000000 -22.324458 -16.186087 6.751136 -47.318622 -16.258369 0.405804 -19.515275 -87.016496 22.607870 0.000000 0.000000 0.000000 19.372095 23.675283 12.044588 47.707635 23.800203 4.183073 -73.628383 69.950700 -49.803418 0.000000 0.000000 0.000000 
0.156283 0.927704 1.113804 -1.559545 0.713933 0.677924 -5.395129 -0.845605 -6.667535 -1.922764 0.099665 5.938353 8.269487 17.084184 1.550810 0.000000 0.000000 0.000000 -7.991761 0.627201 -15.073422 3.333848 -0.192302 19.906120 -7.404643 -18.485576 7.050922 0.000000 0.000000 0.000000 -1.814026 -0.291927 11.904405 -2.726628 1.292016 7.564698 2.397144 1.982614 8.864053 -4.466743 4.110545 -18.682090 0.000000 0.000000 0.000000 -22.430095 -15.952243 6.605330 -47.413789 -16.440979 0.490277 -5.493080 -86.621854 9.193254 0.000000 0.000000 0.000000 19.213288 23.332223 11.826336 48.536076 23.718720 4.270449 -69.910421 70.263941 -46.998945 0.000000 0.000000 0.000000 
0.155372 0.927626 1.113769 -1.540160 0.702278 0.627289 -5.448642 -0.824844 -6.495991 -1.793080 0.083186 5.729385 8.415506 17.368152 1.663948 0.000000 0.000000 0.000000 -7.862610 0.637926 -14.976483 3.210955 -0.155163 20.009777 -7.316600 -18.298284 6.678940 0.000000 0.000000 0.000000 -1.758988 -0.309388 12.303308 -2.775600 1.320000 7.736613 2.303021 1.808618 8.602683 -4.357062 4.017781 -18.274037 0.000000 0.000000 0.000000 -22.342469 -15.703299 6.501778 -47.800287 -15.974719 0.323799 4.774087 -86.003905 -0.425648 0.000000 0.000000 0.000000 18.959156 23.140446 11.609859 49.394007 23.114088 4.169298 -66.203714 70.917753 -44.604930 0.000000 0.000000 0.000000 
0.154382 0.927675 1.113771 -1.512806 0.650393 0.639406 -5.479736 -0.814306 -6.409050 -1.715216 0.073868 5.608057 8.472980 17.483689 1.713385 0.000000 0.000000 0.000000 -7.829419 0.644022 -14.994135 3.200408 -0.148806 20.046854 -7.310115 -18.281381 6.482399 0.000000 0.000000 0.000000 -1.762136 -0.321494 12.786713 -2.879977 1.380698 7.572714 2.361530 1.754461 8.628211 -4.226925 3.929661 -18.132963 0.000000 0.000000 0.000000 -22.353765 -15.677174 6.518394 -48.025088 -15.878065 0.282452 13.057555 -84.956143 -7.953438 0.000000 0.000000 0.000000 18.668825 22.892701 11.388544 50.072258 22.601441 4.047976 -62.400359 71.661072 -42.144831 0.000000 0.000000 0.000000 
0.153402 0.927606 1.113644 -1.531151 0.523851 0.668985 -5.527505 -0.807816 -6.346207 -1.647692 0.066016 5.528000 8.554265 17.643057 1.729116 0.000000 0.000000 0.000000 -7.792519 0.653488 -15.020362 3.442894 -0.212333 20.056380 -7.556595 -18.777261 6.187415 0.000000 0.000000 0.000000 -1.672071 -0.336013 12.969368 -2.871061 1.380622 7.665293 2.191001 1.556665 8.588364 -4.163590 3.863664 -17.867619 0.000000 0.000000 0.000000 -22.337371 -15.702241 6.606878 -48.141639 -15.856381 0.260247 19.470043 -83.595114 -13.412607 0.000000 0.000000 0.000000 18.768670 23.068765 11.439699 50.121245 21.887469 3.763018 -58.925822 72.309503 -39.944706 0.000000 0.000000 0.000000 
0.152605 0.927584 1.113299 -1.544621 0.208945 0.995850 -5.597422 -0.842696 -6.595529 -1.559555 0.055847 5.473061 8.787438 18.087700 1.551305 0.000000 0.000000 0.000000 -7.752744 0.680180 -15.187279 3.651926 -0.256595 19.862411 -7.891239 -19.467124 5.837703 0.000000 0.000000 0.000000 -1.506571 -0.358728 13.270647 -3.038096 1.483617 7.817951 1.986277 1.601564 8.144661 -3.937593 3.707540 -17.517556 0.000000 0.000000 0.000000 -22.050907 -15.856975 6.693246 -48.336936 -15.766451 0.264895 24.242840 -81.993582 -17.211084 0.000000 0.000000 0.000000 18.460968 23.159954 11.412222 50.528637 21.665001 3.767232 -54.293174 71.999340 -36.137691 0.000000 0.000000 0.000000 
0.152123 0.927785 1.112702 -1.542401 0.129688 1.187188 -5.799225 -0.872530 -6.760103 -1.381491 0.031620 5.332650 8.760135 18.051445 1.693571 0.000000 0.000000 0.000000 -7.876931 0.677060 -15.301659 3.886753 -0.320093 19.698737 -8.069942 -19.835545 5.806827 0.000000 0.000000 0.000000 -1.326790 -0.392877 13.708194 -3.059319 1.497770 8.035792 1.647449 1.441704 7.765046 -3.783951 3.598954 -17.726996 0.000000 0.000000 0.000000 -22.011235 -16.041939 6.837140 -48.372865 -16.300576 0.503261 29.255678 -79.902493 -20.794989 0.000000 0.000000 0.000000 18.335447 23.657856 11.624515 50.733251 21.672717 3.843019 -49.457035 70.698412 -31.718676 0.000000 0.000000 0.000000 
0.151814 0.928172 1.111782 -1.562142 0.199108 1.468531 -5.935543 -0.896239 -6.918790 -1.385291 0.038582 5.016700 8.717524 17.968698 1.674798 0.000000 0.000000 0.000000 -7.914170 0.679941 -15.417388 4.026662 -0.365075 19.442470 -8.402374 -20.514078 5.619816 0.000000 0.000000 0.000000 -1.138649 -0.423919 13.881010 -3.179087 1.563955 8.480505 1.568082 1.469476 7.332828 -3.787338 3.592822 -17.372449 0.000000 0.000000 0.000000 -22.170410 -16.340934 6.987245 -48.396795 -16.549868 0.655967 29.438456 -77.972246 -20.310957 0.000000 0.000000 0.000000 18.472474 24.030715 11.884104 50.776015 22.130554 4.082674 -45.075553 68.555272 -27.332716 0.000000 0.000000 0.000000 
0.151592 0.928474 1.110341 -1.545832 0.121163 1.881101 -5.962303 -0.958586 -7.385900 -1.348809 0.036549 4.879757 8.785133 18.113061 1.798737 0.000000 0.000000 0.000000 -7.977652 0.692356 -15.695261 4.231249 -0.419595 19.171265 -8.557411 -20.840010 5.598748 0.000000 0.000000 0.000000 -1.079473 -0.433535 14.015478 -3.292827 1.632448 8.968486 1.433752 1.208874 6.910440 -3.954252 3.646551 -16.994871 0.000000 0.000000 0.000000 -21.744856 -16.768424 7.296556 -48.455250 -17.160172 0.915332 32.586646 -75.763052 -21.941715 0.000000 0.000000 0.000000 18.465416 24.942363 12.318814 50.802677 22.881712 4.474882 -42.556664 65.502625 -24.202330 0.000000 0.000000 0.000000 
0.151185 0.928762 1.108401 -1.671197 0.053896 2.297440 -5.830134 -1.010862 -7.843131 -1.522898 0.067346 4.684960 8.883236 18.304632 1.782808 0.000000 0.000000 0.000000 -7.800515 0.734854 -16.076195 4.384419 -0.459454 18.663183 -8.778940 -21.300580 5.538716 0.000000 0.000000 0.000000 -0.865699 -0.479461 14.539714 -3.500571 1.752562 9.071720 1.459131 1.416990 6.653210 -3.754075 3.529103 -16.533581 0.000000 0.000000 0.000000 -21.673247 -17.845301 7.864006 -47.669853 -17.626011 1.108851 35.135469 -73.921540 -23.283563 0.000000 0.000000 0.000000 18.433401 25.527916 12.707219 50.592624 23.844271 4.885029 -41.130402 61.954639 -21.627327 0.000000 0.000000 0.000000 
0.150729 0.928824 1.106085 -1.822573 -0.157122 2.702541 -5.625640 -1.067392 -8.360087 -1.511156 0.068311 4.615039 8.944680 18.443901 2.039859 0.000000 0.000000 0.000000 -7.645811 0.785696 -16.595451 4.585247 -0.502871 18.401278 -8.911145 -21.573810 5.846295 0.000000 0.000000 0.000000 -0.863396 -0.494205 15.085940 -3.361824 1.685115 9.714917 1.138811 1.460330 5.824425 -3.598319 3.416258 -16.202516 0.000000 0.000000 0.000000 -20.965666 -18.383366 8.090116 -47.076455 -18.471911 1.487163 38.411964 -71.536364 -24.818126 0.000000 0.000000 0.000000 18.729434 26.537469 13.356728 50.433776 24.946255 5.419314 -40.658461 57.903688 -19.652477 0.000000 0.000000 0.000000 
0.150251 0.928541 1.103866 -1.980104 -0.232589 3.238570 -5.336412 -1.143669 -9.086934 -1.854890 0.115843 4.853153 9.082736 18.707288 1.872762 0.000000 0.000000 0.000000 -7.415682 0.847968 -17.220208 4.586431 -0.499438 18.107231 -9.027810 -21.821799 5.914847 0.000000 0.000000 0.000000 -0.835111 -0.519470 15.761520 -3.285470 1.641891 9.949230 1.079016 1.702487 5.203674 -3.519482 3.366820 -15.778454 0.000000 0.000000 0.000000 -20.643470 -19.680204 8.731507 -45.622833 -19.251034 1.773933 41.172324 -68.117431 -25.388904 0.000000 0.000000 0.000000 18.524119 27.054040 13.690202 50.266625 26.456091 6.102662 -39.993992 54.336480 -17.797355 0.000000 0.000000 0.000000 
0.149947 0.928301 1.101994 -2.079693 -0.372139 3.666288 -5.133473 -1.208100 -9.692828 -1.968369 0.134578 4.816782 9.172523 18.896485 2.142483 0.000000 0.000000 0.000000 -7.140855 0.905021 -17.507792 4.474964 -0.462470 17.784458 -9.089687 -21.960110 5.942238 0.000000 0.000000 0.000000 -0.876094 -0.523670 16.198086 -3.331162 1.673699 10.152640 1.099970 1.609795 4.913410 -3.653044 3.421979 -15.685537 0.000000 0.000000 0.000000 -20.277111 -20.478024 9.210566 -44.352981 -20.223987 2.052834 43.418983 -63.828129 -24.877567 0.000000 0.000000 0.000000 18.435340 27.862994 14.099541 50.042931 27.487659 6.556587 -39.917811 50.762214 -16.402403 0.000000 0.000000 0.000000 
0.149812 0.928151 1.100599 -2.294587 -0.528395 4.094595 -4.741850 -1.247061 -10.221527 -2.235434 0.173706 4.996289 9.474373 19.475686 2.424002 0.000000 0.000000 0.000000 -6.737100 0.982498 -17.875371 4.216261 -0.388450 17.233983 -9.017033 -21.823718 6.187226 0.000000 0.000000 0.000000 -0.954928 -0.518292 16.566647 -3.279898 1.647366 10.208598 1.344114 1.914589 4.670345 -3.732286 3.500469 -16.548247 0.000000 0.000000 0.000000 -20.364006 -21.275622 9.629115 -43.193457 -21.043430 2.291253 43.496892 -59.923856 -23.160452 0.000000 0.000000 0.000000 18.383264 28.195231 14.352944 49.697646 28.513956 6.952409 -39.214993 47.479686 -14.793015 0.000000 0.000000 0.000000 
0.149759 0.928204 1.099582 -2.485342 -0.493347 4.460073 -4.495378 -1.273273 -10.592392 -2.385978 0.195624 5.036412 9.734159 19.960035 2.438738 0.000000 0.000000 0.000000 -6.531825 1.014729 -17.913393 4.211302 -0.391047 16.443945 -8.997734 -21.783099 6.457897 0.000000 0.000000 0.000000 -0.922120 -0.538036 16.967627 -3.087205 1.529565 10.092753 1.391597 1.940724 4.547759 -3.629972 3.452106 -17.088202 0.000000 0.000000 0.000000 -20.291155 -21.696516 9.863698 -42.467476 -21.648183 2.452010 42.565235 -55.833721 -20.779781 0.000000 0.000000 0.000000 18.912664 28.681961 14.794799 48.909392 28.846096 6.941336 -38.668635 44.485097 -13.466416 0.000000 0.000000 0.000000 
0.149723 0.928178 1.098881 -2.574544 -0.508063 4.714446 -4.147280 -1.271382 -10.796329 -2.707951 0.243438 5.197586 9.978334 20.414263 2.493275 0.000000 0.000000 0.000000 -6.523070 1.026389 -18.034647 4.220043 -0.394142 15.888867 -8.869290 -21.536612 6.461648 0.000000 0.000000 0.000000 -0.843965 -0.568108 17.476260 -3.056710 1.509650 10.010991 1.428367 1.764127 4.379829 -3.378162 3.295753 -17.573012 0.000000 0.000000 0.000000 -19.920269 -22.053227 10.093009 -42.371305 -21.902383 2.523174 42.007773 -52.523441 -19.016572 0.000000 0.000000 0.000000 18.808836 28.974059 14.888539 48.865934 28.827702 6.950091 -38.153624 42.837711 -12.712753 0.000000 0.000000 0.000000 
